<svg xmlns="http://www.w3.org/2000/svg" width="1200" height="590" viewBox="0 0 1200 590" role="img" aria-labelledby="title desc">
  <title id="title">Loreline PDF RAG flow</title>
  <desc id="desc">A browser uploads a PDF directly to R2. The Effect API validates and parses it, Redis queues embedding work, OpenRouter creates vectors, and PostgreSQL combines text and vector search.</desc>
  <defs>
    <style>
      .title{font:700 30px Inter,system-ui,sans-serif;fill:#17170f}.subtitle{font:400 15px Inter,system-ui,sans-serif;fill:#666653}.heading{font:700 17px Inter,system-ui,sans-serif;fill:#17170f}.body{font:400 14px Inter,system-ui,sans-serif;fill:#4c4c3c}.step{font:700 11px Inter,system-ui,sans-serif;fill:#666653;letter-spacing:.08em}.box{fill:#fffef5;stroke:#c7c5aa;stroke-width:2}.yellow{fill:#f1f0c8}.green{fill:#e5efdc}.pink{fill:#f5e4ed}.arrow{stroke:#77775f;stroke-width:2.2;fill:none;marker-end:url(#arrow)}
    </style>
    <marker id="arrow" markerWidth="9" markerHeight="9" refX="8" refY="4.5" orient="auto"><path d="M0 0L9 4.5L0 9Z" fill="#77775f"/></marker>
    <filter id="shadow" x="-10%" y="-10%" width="120%" height="135%"><feDropShadow dx="0" dy="5" stdDeviation="8" flood-color="#242414" flood-opacity=".08"/></filter>
  </defs>

  <rect width="1200" height="590" rx="28" fill="#f8f7ed"/>
  <text x="52" y="58" class="title">From PDF to searchable book</text>
  <text x="52" y="84" class="subtitle">Reading becomes available first. Embeddings finish in the background.</text>

  <g filter="url(#shadow)">
    <rect x="52" y="130" width="300" height="142" rx="20" class="box yellow"/>
    <rect x="450" y="130" width="300" height="142" rx="20" class="box"/>
    <rect x="848" y="130" width="300" height="142" rx="20" class="box green"/>
    <rect x="52" y="360" width="300" height="142" rx="20" class="box pink"/>
    <rect x="450" y="360" width="300" height="142" rx="20" class="box green"/>
    <rect x="848" y="360" width="300" height="142" rx="20" class="box"/>
  </g>

  <text x="78" y="164" class="step">1 · SIGN</text>
  <text x="78" y="196" class="heading">Ask for an upload URL</text>
  <text x="78" y="226" class="body">The API checks ownership, type,</text>
  <text x="78" y="250" class="body">size, and account-scoped key.</text>

  <image href="brands/cloudflare.svg" x="476" y="154" width="36" height="36"/>
  <text x="526" y="164" class="step">2 · UPLOAD</text>
  <text x="476" y="206" class="heading">Browser to private R2</text>
  <text x="476" y="236" class="body">The PDF never passes through</text>
  <text x="476" y="260" class="body">Next.js or exposes R2 keys.</text>

  <text x="874" y="164" class="step">3 · PREPARE</text>
  <text x="874" y="196" class="heading">Validate and split by page</text>
  <text x="874" y="226" class="body">Text search works immediately.</text>
  <text x="874" y="250" class="body">Every chunk keeps its page.</text>

  <image href="brands/redis.svg" x="78" y="384" width="36" height="36"/>
  <text x="128" y="394" class="step">4 · QUEUE</text>
  <text x="78" y="436" class="heading">Persist the index job</text>
  <text x="78" y="466" class="body">A consumer resumes unfinished</text>
  <text x="78" y="490" class="body">batches after a restart.</text>

  <image href="brands/openrouter.svg" x="476" y="384" width="36" height="36"/>
  <text x="526" y="394" class="step">5 · EMBED</text>
  <text x="476" y="436" class="heading">Generate vectors in batches</text>
  <text x="476" y="466" class="body">Progress is stored after each</text>
  <text x="476" y="490" class="body">successful request.</text>

  <image href="brands/postgresql.svg" x="874" y="384" width="36" height="36"/>
  <text x="924" y="394" class="step">6 · SEARCH</text>
  <text x="874" y="436" class="heading">Fuse text and vector ranks</text>
  <text x="874" y="466" class="body">Results return the passage,</text>
  <text x="874" y="490" class="body">page number, and navigation target.</text>

  <path d="M352 201H450" class="arrow"/>
  <path d="M750 201H848" class="arrow"/>
  <path d="M998 272V316H202V360" class="arrow"/>
  <path d="M352 431H450" class="arrow"/>
  <path d="M750 431H848" class="arrow"/>

  <rect x="392" y="530" width="416" height="34" rx="17" fill="#e7e62d" stroke="#aaa91d"/>
  <text x="600" y="552" text-anchor="middle" font-family="Inter,system-ui,sans-serif" font-size="13" font-weight="700" fill="#292914">Readable after step 3 · vectors continue safely in the background</text>
</svg>
